<mxfile host="app.diagrams.net" modified="2023-05-13T20:07:32.307Z" agent="Mozilla/5.0 (Windows NT 10.0; Win64; x64; rv:109.0) Gecko/20100101 Firefox/114.0" etag="iQMGPrdEokB0D3_mO10t" version="21.3.0" type="device">
  <diagram name="Página-1" id="h_PHgGv21Z5UyMHuUWx8">
    <mxGraphModel dx="691" dy="261" grid="1" gridSize="10" guides="1" tooltips="1" connect="1" arrows="1" fold="1" page="1" pageScale="1" pageWidth="827" pageHeight="1169" math="0" shadow="0">
      <root>
        <mxCell id="0" />
        <mxCell id="1" parent="0" />
        <mxCell id="102qRQHP1nMOurah4v3T-1" value="&lt;div&gt;Cardápio&lt;/div&gt;" style="html=1;whiteSpace=wrap;" parent="1" vertex="1">
          <mxGeometry x="530" y="320" width="110" height="50" as="geometry" />
        </mxCell>
        <mxCell id="102qRQHP1nMOurah4v3T-2" value="&lt;div&gt;Mesa&lt;/div&gt;" style="html=1;whiteSpace=wrap;" parent="1" vertex="1">
          <mxGeometry x="180" y="320" width="110" height="50" as="geometry" />
        </mxCell>
        <mxCell id="102qRQHP1nMOurah4v3T-16" value="1" style="edgeStyle=orthogonalEdgeStyle;rounded=0;orthogonalLoop=1;jettySize=auto;html=1;endArrow=none;endFill=0;" parent="1" source="102qRQHP1nMOurah4v3T-14" target="102qRQHP1nMOurah4v3T-1" edge="1">
          <mxGeometry x="0.697" y="5" relative="1" as="geometry">
            <mxPoint as="offset" />
          </mxGeometry>
        </mxCell>
        <mxCell id="102qRQHP1nMOurah4v3T-17" value="n" style="edgeStyle=orthogonalEdgeStyle;rounded=0;orthogonalLoop=1;jettySize=auto;html=1;endArrow=none;endFill=0;" parent="1" source="102qRQHP1nMOurah4v3T-14" target="102qRQHP1nMOurah4v3T-2" edge="1">
          <mxGeometry x="0.7619" y="-5" relative="1" as="geometry">
            <mxPoint as="offset" />
          </mxGeometry>
        </mxCell>
        <mxCell id="102qRQHP1nMOurah4v3T-14" value="&lt;div&gt;pedidos&lt;/div&gt;" style="strokeWidth=2;html=1;shape=mxgraph.flowchart.decision;whiteSpace=wrap;" parent="1" vertex="1">
          <mxGeometry x="374" y="320" width="100" height="50" as="geometry" />
        </mxCell>
        <mxCell id="102qRQHP1nMOurah4v3T-19" value="" style="edgeStyle=orthogonalEdgeStyle;rounded=0;orthogonalLoop=1;jettySize=auto;html=1;endArrow=none;endFill=0;" parent="1" source="102qRQHP1nMOurah4v3T-18" target="102qRQHP1nMOurah4v3T-2" edge="1">
          <mxGeometry relative="1" as="geometry" />
        </mxCell>
        <mxCell id="102qRQHP1nMOurah4v3T-18" value="&lt;u&gt;mesa_Id&lt;/u&gt;" style="ellipse;whiteSpace=wrap;html=1;" parent="1" vertex="1">
          <mxGeometry x="50" y="335" width="60" height="20" as="geometry" />
        </mxCell>
        <mxCell id="102qRQHP1nMOurah4v3T-21" value="" style="edgeStyle=orthogonalEdgeStyle;rounded=0;orthogonalLoop=1;jettySize=auto;html=1;endArrow=none;endFill=0;" parent="1" source="102qRQHP1nMOurah4v3T-20" target="102qRQHP1nMOurah4v3T-2" edge="1">
          <mxGeometry relative="1" as="geometry">
            <Array as="points">
              <mxPoint x="150" y="375" />
              <mxPoint x="150" y="345" />
            </Array>
          </mxGeometry>
        </mxCell>
        <mxCell id="102qRQHP1nMOurah4v3T-20" value="números_integrantes" style="ellipse;whiteSpace=wrap;html=1;" parent="1" vertex="1">
          <mxGeometry x="10" y="360" width="120" height="30" as="geometry" />
        </mxCell>
        <mxCell id="102qRQHP1nMOurah4v3T-23" style="edgeStyle=orthogonalEdgeStyle;rounded=0;orthogonalLoop=1;jettySize=auto;html=1;exitX=1;exitY=0.5;exitDx=0;exitDy=0;entryX=0;entryY=0.5;entryDx=0;entryDy=0;endArrow=none;endFill=0;" parent="1" source="102qRQHP1nMOurah4v3T-22" target="102qRQHP1nMOurah4v3T-2" edge="1">
          <mxGeometry relative="1" as="geometry">
            <Array as="points">
              <mxPoint x="150" y="410" />
              <mxPoint x="150" y="345" />
            </Array>
          </mxGeometry>
        </mxCell>
        <mxCell id="102qRQHP1nMOurah4v3T-22" value="consumo_total" style="ellipse;whiteSpace=wrap;html=1;" parent="1" vertex="1">
          <mxGeometry x="20" y="400" width="100" height="20" as="geometry" />
        </mxCell>
        <mxCell id="102qRQHP1nMOurah4v3T-25" style="edgeStyle=orthogonalEdgeStyle;rounded=0;orthogonalLoop=1;jettySize=auto;html=1;exitX=1;exitY=0.5;exitDx=0;exitDy=0;entryX=0;entryY=0.5;entryDx=0;entryDy=0;endArrow=none;endFill=0;" parent="1" source="102qRQHP1nMOurah4v3T-24" target="102qRQHP1nMOurah4v3T-2" edge="1">
          <mxGeometry relative="1" as="geometry">
            <Array as="points">
              <mxPoint x="150" y="440" />
              <mxPoint x="150" y="345" />
            </Array>
          </mxGeometry>
        </mxCell>
        <mxCell id="102qRQHP1nMOurah4v3T-24" value="pago" style="ellipse;whiteSpace=wrap;html=1;" parent="1" vertex="1">
          <mxGeometry x="40" y="430" width="60" height="20" as="geometry" />
        </mxCell>
        <mxCell id="102qRQHP1nMOurah4v3T-29" style="edgeStyle=orthogonalEdgeStyle;rounded=0;orthogonalLoop=1;jettySize=auto;html=1;exitX=1;exitY=0.5;exitDx=0;exitDy=0;entryX=0.5;entryY=1;entryDx=0;entryDy=0;entryPerimeter=0;endArrow=none;endFill=0;" parent="1" source="102qRQHP1nMOurah4v3T-28" target="102qRQHP1nMOurah4v3T-14" edge="1">
          <mxGeometry relative="1" as="geometry" />
        </mxCell>
        <mxCell id="102qRQHP1nMOurah4v3T-28" value="Id_mesa" style="ellipse;whiteSpace=wrap;html=1;" parent="1" vertex="1">
          <mxGeometry x="340" y="420" width="60" height="20" as="geometry" />
        </mxCell>
        <mxCell id="102qRQHP1nMOurah4v3T-31" style="edgeStyle=orthogonalEdgeStyle;rounded=0;orthogonalLoop=1;jettySize=auto;html=1;exitX=1;exitY=0.5;exitDx=0;exitDy=0;entryX=0.5;entryY=1;entryDx=0;entryDy=0;entryPerimeter=0;endArrow=none;endFill=0;" parent="1" source="102qRQHP1nMOurah4v3T-30" target="102qRQHP1nMOurah4v3T-14" edge="1">
          <mxGeometry relative="1" as="geometry" />
        </mxCell>
        <mxCell id="102qRQHP1nMOurah4v3T-30" value="Id_prato" style="ellipse;whiteSpace=wrap;html=1;" parent="1" vertex="1">
          <mxGeometry x="340" y="450" width="60" height="20" as="geometry" />
        </mxCell>
        <mxCell id="102qRQHP1nMOurah4v3T-33" style="edgeStyle=orthogonalEdgeStyle;rounded=0;orthogonalLoop=1;jettySize=auto;html=1;exitX=1;exitY=0.5;exitDx=0;exitDy=0;entryX=0.5;entryY=1;entryDx=0;entryDy=0;entryPerimeter=0;endArrow=none;endFill=0;" parent="1" source="102qRQHP1nMOurah4v3T-32" target="102qRQHP1nMOurah4v3T-14" edge="1">
          <mxGeometry relative="1" as="geometry" />
        </mxCell>
        <mxCell id="102qRQHP1nMOurah4v3T-32" value="Quantidade_prato" style="ellipse;whiteSpace=wrap;html=1;" parent="1" vertex="1">
          <mxGeometry x="290" y="480" width="115" height="20" as="geometry" />
        </mxCell>
        <mxCell id="102qRQHP1nMOurah4v3T-35" style="edgeStyle=orthogonalEdgeStyle;rounded=0;orthogonalLoop=1;jettySize=auto;html=1;exitX=1;exitY=0.5;exitDx=0;exitDy=0;endArrow=none;endFill=0;" parent="1" source="102qRQHP1nMOurah4v3T-34" target="102qRQHP1nMOurah4v3T-14" edge="1">
          <mxGeometry relative="1" as="geometry" />
        </mxCell>
        <mxCell id="102qRQHP1nMOurah4v3T-34" value="entregue" style="ellipse;whiteSpace=wrap;html=1;" parent="1" vertex="1">
          <mxGeometry x="337.5" y="510" width="62.5" height="20" as="geometry" />
        </mxCell>
        <mxCell id="iIE0FXNNd4-0HzEqBqoK-7" value="" style="edgeStyle=orthogonalEdgeStyle;rounded=0;orthogonalLoop=1;jettySize=auto;html=1;endArrow=none;endFill=0;" edge="1" parent="1" source="102qRQHP1nMOurah4v3T-36" target="iIE0FXNNd4-0HzEqBqoK-3">
          <mxGeometry relative="1" as="geometry">
            <Array as="points">
              <mxPoint x="670" y="500" />
              <mxPoint x="670" y="520" />
            </Array>
          </mxGeometry>
        </mxCell>
        <mxCell id="102qRQHP1nMOurah4v3T-36" value="&lt;u&gt;prato_Id&lt;/u&gt;" style="ellipse;whiteSpace=wrap;html=1;" parent="1" vertex="1">
          <mxGeometry x="680" y="490" width="50" height="20" as="geometry" />
        </mxCell>
        <mxCell id="iIE0FXNNd4-0HzEqBqoK-8" value="" style="edgeStyle=orthogonalEdgeStyle;rounded=0;orthogonalLoop=1;jettySize=auto;html=1;endArrow=none;endFill=0;" edge="1" parent="1" source="102qRQHP1nMOurah4v3T-38" target="iIE0FXNNd4-0HzEqBqoK-3">
          <mxGeometry relative="1" as="geometry">
            <Array as="points">
              <mxPoint x="670" y="530" />
              <mxPoint x="670" y="520" />
            </Array>
          </mxGeometry>
        </mxCell>
        <mxCell id="102qRQHP1nMOurah4v3T-38" value="prato_nome" style="ellipse;whiteSpace=wrap;html=1;" parent="1" vertex="1">
          <mxGeometry x="680" y="520" width="70" height="20" as="geometry" />
        </mxCell>
        <mxCell id="iIE0FXNNd4-0HzEqBqoK-9" value="" style="edgeStyle=orthogonalEdgeStyle;rounded=0;orthogonalLoop=1;jettySize=auto;html=1;endArrow=none;endFill=0;" edge="1" parent="1" source="102qRQHP1nMOurah4v3T-40" target="iIE0FXNNd4-0HzEqBqoK-3">
          <mxGeometry relative="1" as="geometry">
            <Array as="points">
              <mxPoint x="670" y="520" />
            </Array>
          </mxGeometry>
        </mxCell>
        <mxCell id="102qRQHP1nMOurah4v3T-40" value="prato_categora" style="ellipse;whiteSpace=wrap;html=1;" parent="1" vertex="1">
          <mxGeometry x="680" y="550" width="90" height="20" as="geometry" />
        </mxCell>
        <mxCell id="iIE0FXNNd4-0HzEqBqoK-10" style="edgeStyle=orthogonalEdgeStyle;rounded=0;orthogonalLoop=1;jettySize=auto;html=1;exitX=0;exitY=0.5;exitDx=0;exitDy=0;entryX=1;entryY=0.5;entryDx=0;entryDy=0;endArrow=none;endFill=0;" edge="1" parent="1" source="102qRQHP1nMOurah4v3T-42" target="iIE0FXNNd4-0HzEqBqoK-3">
          <mxGeometry relative="1" as="geometry">
            <Array as="points">
              <mxPoint x="670" y="595" />
              <mxPoint x="670" y="520" />
            </Array>
          </mxGeometry>
        </mxCell>
        <mxCell id="102qRQHP1nMOurah4v3T-42" value="prato_tipo" style="ellipse;whiteSpace=wrap;html=1;" parent="1" vertex="1">
          <mxGeometry x="680" y="580" width="65" height="30" as="geometry" />
        </mxCell>
        <mxCell id="102qRQHP1nMOurah4v3T-45" value="" style="edgeStyle=orthogonalEdgeStyle;rounded=0;orthogonalLoop=1;jettySize=auto;html=1;endArrow=none;endFill=0;" parent="1" source="102qRQHP1nMOurah4v3T-44" target="102qRQHP1nMOurah4v3T-14" edge="1">
          <mxGeometry relative="1" as="geometry">
            <Array as="points">
              <mxPoint x="424" y="395" />
            </Array>
          </mxGeometry>
        </mxCell>
        <mxCell id="102qRQHP1nMOurah4v3T-44" value="&lt;u&gt;Id_pedido&lt;/u&gt;" style="ellipse;whiteSpace=wrap;html=1;" parent="1" vertex="1">
          <mxGeometry x="330" y="380" width="80" height="30" as="geometry" />
        </mxCell>
        <mxCell id="102qRQHP1nMOurah4v3T-47" style="edgeStyle=orthogonalEdgeStyle;rounded=0;orthogonalLoop=1;jettySize=auto;html=1;exitX=1;exitY=0.5;exitDx=0;exitDy=0;endArrow=none;endFill=0;" parent="1" source="102qRQHP1nMOurah4v3T-46" target="102qRQHP1nMOurah4v3T-14" edge="1">
          <mxGeometry relative="1" as="geometry" />
        </mxCell>
        <mxCell id="102qRQHP1nMOurah4v3T-46" value="Data" style="ellipse;whiteSpace=wrap;html=1;" parent="1" vertex="1">
          <mxGeometry x="340" y="540" width="60" height="20" as="geometry" />
        </mxCell>
        <mxCell id="iIE0FXNNd4-0HzEqBqoK-5" value="" style="edgeStyle=orthogonalEdgeStyle;rounded=0;orthogonalLoop=1;jettySize=auto;html=1;endArrow=none;endFill=0;" edge="1" parent="1" source="iIE0FXNNd4-0HzEqBqoK-2" target="102qRQHP1nMOurah4v3T-1">
          <mxGeometry relative="1" as="geometry" />
        </mxCell>
        <mxCell id="iIE0FXNNd4-0HzEqBqoK-2" value="Possui" style="strokeWidth=2;html=1;shape=mxgraph.flowchart.decision;whiteSpace=wrap;" vertex="1" parent="1">
          <mxGeometry x="535" y="400" width="100" height="50" as="geometry" />
        </mxCell>
        <mxCell id="iIE0FXNNd4-0HzEqBqoK-6" value="" style="edgeStyle=orthogonalEdgeStyle;rounded=0;orthogonalLoop=1;jettySize=auto;html=1;endArrow=none;endFill=0;" edge="1" parent="1" source="iIE0FXNNd4-0HzEqBqoK-3" target="iIE0FXNNd4-0HzEqBqoK-2">
          <mxGeometry relative="1" as="geometry" />
        </mxCell>
        <mxCell id="iIE0FXNNd4-0HzEqBqoK-3" value="Prato" style="rounded=0;whiteSpace=wrap;html=1;" vertex="1" parent="1">
          <mxGeometry x="525" y="490" width="120" height="60" as="geometry" />
        </mxCell>
      </root>
    </mxGraphModel>
  </diagram>
</mxfile>
